<svg width="37" height="37" viewBox="0 0 37 37" fill="none" xmlns="http://www.w3.org/2000/svg">
<path fill-rule="evenodd" clip-rule="evenodd" d="M9.67506 12.2284C10.4212 12.2284 11.0268 12.834 11.0268 13.5801C11.0268 14.3263 10.4212 14.9319 9.67506 14.9319H7.99346C5.07544 14.9319 2.70354 17.3038 2.70354 20.22V29.0065C2.70354 31.9246 5.07544 34.2965 7.99346 34.2965H28.0537C30.9699 34.2965 33.3436 31.9246 33.3436 29.0065V20.2038C33.3436 17.2966 30.979 14.9319 28.0735 14.9319H26.3739C25.6277 14.9319 25.0222 14.3263 25.0222 13.5801C25.0222 12.834 25.6277 12.2284 26.3739 12.2284H28.0735C32.4695 12.2284 36.0472 15.8061 36.0472 20.2038V29.0065C36.0472 33.4151 32.4605 37 28.0537 37H7.99346C3.58669 37 0 33.4151 0 29.0065V20.22C0 15.8133 3.58669 12.2284 7.99346 12.2284H9.67506ZM18.9799 0.382551L24.2356 5.65986C24.7619 6.18975 24.7601 7.04407 24.232 7.57036C23.7021 8.09665 22.8478 8.09665 22.3215 7.56675L19.3736 4.60863L19.3746 24.3887H16.6711L16.67 4.60863L13.726 7.56675C13.4629 7.8335 13.115 7.96508 12.769 7.96508C12.4247 7.96508 12.0787 7.8335 11.8155 7.57036C11.2875 7.04407 11.2838 6.18975 11.8119 5.65986L17.0658 0.382551C17.5723 -0.127517 18.4735 -0.127517 18.9799 0.382551Z" fill="#CCCCCC"/>
</svg>
