<svg width="16" height="20" viewBox="0 0 16 20" fill="none" xmlns="http://www.w3.org/2000/svg">
<path fill-rule="evenodd" clip-rule="evenodd" d="M15.5415 15.8883C15.5415 19.1222 11.1067 19.496 7.77175 19.496L7.5331 19.4958C5.40834 19.4906 0 19.3565 0 15.8687C0 12.7008 4.25661 12.2774 7.56618 12.2614L8.01039 12.2611C10.135 12.2663 15.5415 12.4004 15.5415 15.8883ZM7.77175 13.7327C3.59104 13.7327 1.47174 14.4509 1.47174 15.8687C1.47174 17.2992 3.59104 18.0243 7.77175 18.0243C11.9515 18.0243 14.0698 17.306 14.0698 15.8883C14.0698 14.4577 11.9515 13.7327 7.77175 13.7327ZM7.77175 0C10.6446 0 12.9807 2.33712 12.9807 5.20995C12.9807 8.08278 10.6446 10.4189 7.77175 10.4189H7.74035C4.87341 10.4101 2.55101 8.07198 2.56079 5.207C2.56079 2.33712 4.89794 0 7.77175 0ZM7.77175 1.40109C5.67109 1.40109 3.96189 3.10929 3.96189 5.20995C3.95505 7.30374 5.65147 9.01095 7.7433 9.0188L7.77175 9.71935V9.0188C9.87143 9.0188 11.5796 7.30962 11.5796 5.20995C11.5796 3.10929 9.87143 1.40109 7.77175 1.40109Z" fill="#A9A9A9"/>
</svg>
