<svg width="46" height="50" viewBox="0 0 46 50" fill="none" xmlns="http://www.w3.org/2000/svg">
<path fill-rule="evenodd" clip-rule="evenodd" d="M12.0938 16.4071C13.0266 16.4071 13.7835 17.2197 13.7835 18.2208C13.7835 19.222 13.0266 20.0345 12.0938 20.0345H9.99183C6.3443 20.0345 3.37942 23.217 3.37942 27.1298V38.9188C3.37942 42.834 6.3443 46.0165 9.99183 46.0165H35.0672C38.7124 46.0165 41.6796 42.834 41.6796 38.9188V27.108C41.6796 23.2073 38.7237 20.0345 35.0919 20.0345H32.9674C32.0347 20.0345 31.2777 19.222 31.2777 18.2208C31.2777 17.2197 32.0347 16.4071 32.9674 16.4071H35.0919C40.5869 16.4071 45.059 21.2074 45.059 27.108V38.9188C45.059 44.8339 40.5756 49.6439 35.0672 49.6439H9.99183C4.48337 49.6439 0 44.8339 0 38.9188V27.1298C0 21.2171 4.48337 16.4071 9.99183 16.4071H12.0938ZM23.7249 0.513279L30.2945 7.59398C30.9524 8.30496 30.9501 9.45122 30.29 10.1574C29.6276 10.8635 28.5597 10.8635 27.9019 10.1525L24.2169 6.18353L24.2183 32.723H20.8389L20.8375 6.18353L17.1576 10.1525C16.8286 10.5104 16.3938 10.687 15.9612 10.687C15.5309 10.687 15.0984 10.5104 14.7694 10.1574C14.1093 9.45122 14.1048 8.30496 14.7649 7.59398L21.3323 0.513279C21.9654 -0.171093 23.0918 -0.171093 23.7249 0.513279Z" fill="#FFD508"/>
</svg>
