<svg width="17" height="21" viewBox="0 0 17 21" fill="none" xmlns="http://www.w3.org/2000/svg">
<path fill-rule="evenodd" clip-rule="evenodd" d="M8.39368 0.707027C11.2109 0.707027 13.5053 3.00135 13.5053 5.8215L13.5051 7.34262C15.2179 7.93869 16.45 9.56922 16.45 11.4828V15.6209C16.45 18.0378 14.4846 20.0031 12.0678 20.0031H4.69565C2.2788 20.0031 0.313477 18.0378 0.313477 15.6209V11.4828C0.313477 9.56958 1.54508 7.93931 3.25732 7.34296L3.25799 5.8215C3.26378 4.43217 3.80118 3.14993 4.77081 2.18898C5.74141 1.22706 7.02268 0.670364 8.39368 0.707027ZM12.0678 8.54786H4.69565C3.0767 8.54786 1.76069 9.86387 1.76069 11.4828V15.6209C1.76069 17.2399 3.0767 18.5559 4.69565 18.5559H12.0678C13.6858 18.5559 15.0027 17.2399 15.0027 15.6209V11.4828C15.0027 9.86387 13.6858 8.54786 12.0678 8.54786ZM8.38153 11.7566C8.78096 11.7566 9.10513 12.0808 9.10513 12.4802V14.6231C9.10513 15.0225 8.78096 15.3467 8.38153 15.3467C7.98209 15.3467 7.65792 15.0225 7.65792 14.6231V12.4802C7.65792 12.0808 7.98209 11.7566 8.38153 11.7566ZM8.39079 2.15425H8.37535C7.398 2.15425 6.48239 2.53052 5.79062 3.2165C5.09402 3.90538 4.70906 4.82484 4.7052 5.80509L4.70434 7.1001H12.0572L12.058 5.8215C12.058 3.79925 10.413 2.15425 8.39079 2.15425Z" fill="#A9A9A9"/>
</svg>
